<?xml version="1.0" encoding="UTF-8"?>
<svg xmlns="http://www.w3.org/2000/svg" xmlns:xlink="http://www.w3.org/1999/xlink" viewBox="0 0 48 48" width="48px" height="48px">
<g id="surface69227968">
<path style=" stroke:none;fill-rule:nonzero;fill:rgb(96.078432%,81.176472%,10.196079%);fill-opacity:1;" d="M 24 24 L 4 24 L 4 4 L 24 4 Z M 44 24 L 24 24 L 24 44 L 44 44 Z M 44 24 "/>
<path style=" stroke:none;fill-rule:nonzero;fill:rgb(100%,100%,100%);fill-opacity:1;" d="M 7 8 L 12.199219 8 C 14 8 15.5 9.398438 15.5 11.199219 C 15.5 12.398438 14.800781 13.699219 13.601562 14 C 15.101562 14.199219 16 15.398438 16 16.699219 C 16 19.398438 14 20 11.699219 20 L 7 20 Z M 9 13 L 11.5 13 C 12.398438 13 13.199219 12.601562 13.199219 11.5 C 13.199219 10.601562 12.699219 10 11.5 10 L 9 10 Z M 9 18.199219 L 11.800781 18.199219 C 13.101562 18.199219 13.800781 17.800781 13.800781 16.699219 C 13.800781 15.5 13 15.101562 11.800781 15.101562 L 9 15.101562 Z M 26 28 L 31.199219 28 C 33 28 34.5 29.398438 34.5 31.199219 C 34.5 32.398438 33.800781 33.699219 32.601562 34 C 34.101562 34.199219 35 35.398438 35 36.699219 C 35 39.398438 33 40 30.699219 40 L 26 40 Z M 28 33 L 30.5 33 C 31.398438 33 32.199219 32.601562 32.199219 31.5 C 32.199219 30.601562 31.699219 30 30.5 30 L 28 30 Z M 28 38.199219 L 30.800781 38.199219 C 32.101562 38.199219 32.800781 37.800781 32.800781 36.699219 C 32.800781 35.5 32 35.101562 30.800781 35.101562 L 28 35.101562 Z M 17 12 L 19 12 L 19 13.300781 C 19.398438 12.398438 20 12 21 12 L 21 14 C 19.800781 14 19 14.5 19 16.199219 L 19 20 L 17 20 Z M 42 38.5 C 42 39.300781 42.199219 39.601562 42.199219 39.800781 L 40.601562 39.800781 C 40.5 39.601562 40.398438 39.300781 40.398438 39.101562 C 39.800781 39.699219 39.101562 40 38.300781 40 C 37.101562 40 35.898438 39.101562 35.898438 37.601562 C 35.898438 36.101562 37.101562 35.398438 38 35.199219 L 38.601562 35 C 39.199219 34.898438 39.898438 34.699219 40.300781 34.5 L 40.300781 34.300781 C 40.300781 33.5 39.800781 33.300781 39.101562 33.300781 C 38.199219 33.300781 37.898438 33.601562 37.898438 34.398438 L 36.398438 34.300781 C 36.398438 32.5 37.699219 31.800781 39.101562 31.800781 C 40.5 31.800781 41.898438 32.101562 41.898438 34.300781 Z M 39.5 36.5 L 38.898438 36.699219 C 38.5 36.800781 38.101562 37 38.101562 37.5 C 38.101562 38 38.5 38.300781 38.898438 38.300781 C 39.398438 38.300781 40.101562 38 40.101562 37.199219 L 40.101562 36.300781 C 40 36.199219 39.699219 36.398438 39.5 36.5 Z M 39.5 36.5 "/>
</g>
</svg>
